<svg version="1.1" xmlns="http://www.w3.org/2000/svg" style="display: block;" viewBox="0 0 2048 2048" width="1254" height="1254" preserveAspectRatio="none">
<path transform="translate(0,0)" fill="rgb(254,254,254)" d="M 988.247 272.432 C 990.58 272.199 996.437 272.062 998.84 272.092 C 1023.76 272.398 1050.57 271.13 1075.31 272.903 C 1216.91 283.445 1351.55 338.458 1460.01 430.084 C 1470.68 439.185 1486 454.342 1496.37 464.419 C 1588.63 555.297 1654.18 669.743 1685.89 795.296 C 1687.53 801.526 1692.25 814.405 1693.15 819.531 C 1700.25 860.342 1706.64 908.598 1707.29 950.138 C 1711.71 1139.65 1640.79 1323.17 1510.09 1460.46 C 1484.91 1486.98 1457.78 1511.58 1428.94 1534.06 C 1337.13 1604.32 1228.65 1649.55 1114.13 1665.32 C 1093.02 1668.04 1073.99 1670.61 1052.75 1670.96 L 1050.94 1671.02 C 963.966 1673.45 885.918 1662.84 803.877 1634.79 C 766.009 1621.84 740.974 1610.86 705.838 1591.55 C 648.759 1560.18 599.248 1525.04 552.462 1479.56 C 438.779 1368.18 362.124 1220.86 340.443 1062.95 C 328.997 979.587 333.273 900.725 349.27 818.257 C 351.419 807.179 356.154 793.963 359.251 782.887 C 389.547 671.259 447.106 568.907 526.754 485.032 C 608.171 398.075 711.125 334.18 825.185 299.819 C 872.875 285.658 938.56 273.712 988.247 272.432 z M 1044.73 1591.23 C 1197.63 1587.66 1347.37 1514.6 1452.69 1405.01 C 1526.8 1327.64 1580.03 1232.69 1607.35 1129.09 C 1610.8 1115.83 1613.77 1103.36 1616.65 1089.96 C 1621.92 1065.52 1621.19 1041.94 1622.88 1017.5 C 1625.58 992.359 1625.13 968.575 1623.01 943.409 C 1622.26 934.522 1624.26 922.953 1624.03 913.613 C 1623.16 878.03 1617.31 846.437 1608.54 812.068 C 1579.87 699.929 1520.23 598.114 1436.45 518.254 C 1332.17 420.274 1196.81 362.009 1053.96 353.623 C 1038.73 352.728 1012.89 353.043 997.5 353.455 L 995.495 353.512 C 832.937 361.939 680.343 434.443 571.133 555.147 C 557.046 570.645 547.232 584.523 535.033 601.187 C 450.517 715.823 408.144 856.11 415.067 998.365 C 423.177 1167.7 499.561 1326.52 626.783 1438.57 C 721.713 1523.16 838.611 1575.96 965.842 1589.05 C 988.996 1591.43 1016.27 1593.02 1039.48 1591.6 C 1041.23 1591.5 1042.98 1591.38 1044.73 1591.23 z"/>
<path transform="translate(0,0)" fill="rgb(254,254,254)" d="M 1015.47 604.273 C 1040.21 601.508 1057.57 610.3 1060.46 636.406 C 1063.18 660.874 1061.49 684.272 1061.46 708.711 L 1061.59 839.944 C 1061.49 855.781 1060.13 885.089 1062.11 899.349 L 1062.31 900.778 C 1070.5 909.834 1077.61 913.842 1085.95 925.976 C 1101.17 948.136 1102.01 964.743 1097.83 990.127 C 1171 1055.72 1242.07 1123.43 1314.84 1189.44 C 1347.86 1219.39 1317.84 1280.29 1267.21 1251.74 C 1258.27 1246.01 1241.74 1228.96 1233.04 1221.19 C 1206.59 1197.56 1181.69 1173.33 1156.34 1148.66 C 1120.96 1114.76 1084.92 1081.55 1048.26 1049.04 C 1039.34 1048.5 1028.1 1049.76 1018.62 1049.68 C 997.752 1049.52 978.446 1039.19 964.032 1024.6 C 949.292 1009.69 943.403 987.296 944.017 966.707 C 944.922 936.408 960.972 919.548 981.565 899.89 C 984.432 885.386 983.283 852.572 983.214 836.317 L 983.179 706.265 C 983.168 685.05 981.973 663.379 983.221 642.279 C 984.631 618.452 993.511 610.066 1015.47 604.273 z"/>
<path transform="translate(0,0)" fill="rgb(254,254,254)" d="M 1016.65 1403.29 C 1035.5 1402.09 1050.21 1405.92 1056.38 1426.37 C 1063.02 1449.76 1058.13 1475.27 1059.95 1499.26 C 1061.79 1523.46 1056.05 1538.17 1032.16 1545.97 C 1022.52 1546.39 1013.4 1545.58 1004.52 1541.5 C 998.544 1538.76 992.987 1534.66 990.795 1528.24 C 986.149 1514.63 986.119 1434.18 992.181 1422.52 C 997.577 1412.13 1005.83 1406.67 1016.65 1403.29 z"/>
<path transform="translate(0,0)" fill="rgb(254,254,254)" d="M 488.062 929.307 C 491.936 928.743 502.754 929.078 507.171 929.551 C 520.723 931.906 561.756 925.396 572.323 933.189 C 603.605 956.26 599.201 992.965 561.082 1001.79 C 550.804 1003.27 539.102 1002.55 528.565 1002.24 C 509.976 1001.7 487.372 1005.69 470.664 995.888 C 450.494 984.059 450.908 960.121 462.926 942.522 C 469.295 933.197 477.527 930.929 488.062 929.307 z"/>
<path transform="translate(0,0)" fill="rgb(254,254,254)" d="M 1016.08 392.288 C 1046.37 390.032 1061.69 418.179 1060.12 444.266 C 1058.35 473.552 1068.94 524.547 1029.44 530.467 C 1021.85 530.393 1014.43 529.728 1007.29 526.89 C 999.619 523.844 993.701 518.387 990.458 510.761 C 985.924 500.101 984.549 449.516 985.736 437.12 C 986.34 430.325 988.018 423.668 990.707 417.398 C 996.369 404.237 1003.17 397.341 1016.08 392.288 z"/>
<path transform="translate(0,0)" fill="rgb(254,254,254)" d="M 1487.38 928.288 C 1508.82 927.61 1536.68 931.129 1558.67 930.535 C 1582.92 929.879 1599.96 964.749 1585.43 984.624 C 1577.18 995.909 1570.21 999.25 1556.64 1001.9 C 1527.84 1001.95 1463.22 1012.02 1454.54 976.423 C 1449.56 955.978 1466.57 932.707 1487.38 928.288 z"/>
</svg>