<svg version="1.1" xmlns="http://www.w3.org/2000/svg" style="display: block;" viewBox="0 0 2048 1365" width="1536" height="1024" preserveAspectRatio="none">
<defs>
	<linearGradient id="Gradient1" gradientUnits="userSpaceOnUse" x1="1039.46" y1="768.698" x2="1618.61" y2="746.761">
		<stop class="stop0" offset="0" stop-opacity="1" stop-color="rgb(23,161,107)"/>
		<stop class="stop1" offset="1" stop-opacity="1" stop-color="rgb(0,209,161)"/>
	</linearGradient>
	<linearGradient id="Gradient2" gradientUnits="userSpaceOnUse" x1="1018.64" y1="772.516" x2="436.406" y2="742.872">
		<stop class="stop0" offset="0" stop-opacity="1" stop-color="rgb(21,158,105)"/>
		<stop class="stop1" offset="1" stop-opacity="1" stop-color="rgb(0,211,157)"/>
	</linearGradient>
</defs>
<path transform="translate(0,0)" fill="url(#Gradient2)" d="M 654.492 430.416 C 660.794 429.361 674.124 429.521 680.469 430.471 C 690.229 431.933 702.66 438.686 699.454 450.586 C 694.256 470.609 669.375 465.809 651.175 467.404 C 609.859 471.026 567.492 506.798 592.088 550.421 C 603.494 570.65 632.288 576.79 653.996 576.202 C 662.755 575.965 673.939 575.519 682.663 577.125 C 692.979 579.21 699.909 589.517 696.53 599.691 C 694.874 604.573 691.213 608.516 686.468 610.531 C 678.138 614.018 635.812 612.409 625.685 610.704 C 617.244 609.287 608.99 606.917 601.082 603.641 C 576.007 593.231 559.957 576.878 549.569 552.159 C 441.217 590.173 472.506 710.315 548.659 762.331 C 566.427 762.369 644.059 759.107 654.044 766.06 C 658.027 768.833 660.377 773.168 661.055 777.92 C 661.763 782.885 660.561 787.947 657.346 791.86 C 655.405 794.222 652.504 796.349 649.53 797.176 C 641.101 799.522 629.882 798.344 621.144 798.289 C 602.203 798.169 582.864 797.269 563.971 798.719 C 559.926 801.324 555.991 805.269 552.699 808.824 C 523.072 837.488 538.527 898.156 581.976 900.338 C 638.517 903.178 701.814 893.057 758.111 887.748 L 757.726 867.005 L 646.284 867.053 C 627.932 867.054 608.971 867.551 590.619 866.384 C 572.079 865.206 570.33 834.45 589.323 833.052 C 606.759 831.77 625.227 832.389 642.849 832.396 C 680.158 832.551 717.468 832.461 754.775 832.126 C 754.07 826.834 753.327 821.591 752.466 816.319 C 741 746.117 675.639 693.602 606.883 683.949 C 597.852 682.618 588.719 682.11 579.596 682.431 C 566.075 682.801 545.562 687.915 534.502 679.933 C 530.994 677.325 529.115 672.946 528.688 668.711 C 526.364 645.681 556.882 647.085 572.272 646.392 C 633.664 643.626 688.105 664.44 733.032 705.901 C 792.511 760.793 794.906 821.848 797.044 897.576 C 820.752 920.808 844.956 941.424 864.163 969.089 C 875.33 985.175 874.802 1004.4 850.426 1003.12 C 841.664 1002.65 831.977 987.976 827.01 981.5 C 813.894 963.483 786.424 938.67 769.41 923.348 C 756.22 924.464 743.047 925.778 729.896 927.29 C 730.104 959.701 742.007 992.414 764.417 1016.08 C 786.463 1038.98 816.768 1052.11 848.558 1052.51 C 879.966 1053.02 910.267 1040.91 932.679 1018.9 C 986.529 966.362 990.942 844.854 944.192 786.174 C 913.602 747.777 867.749 717.923 833.463 682.528 C 819.294 667.9 819.44 658.005 834.386 644.39 C 869.161 667.416 904.899 699.416 937.549 725.686 C 951.773 737.131 972.412 759.875 982.427 775.208 C 1030.14 848.27 1024.77 973.547 965.756 1038.96 C 938.641 1069.13 900.578 1087.18 860.063 1089.08 C 817.103 1091.52 774.967 1076.57 743.144 1047.61 C 709.83 1017.32 693.853 976.17 691.829 931.794 C 641.745 932.623 574.947 953.312 531.352 918.502 C 512.917 903.929 501.132 882.544 498.657 859.176 C 495.761 832.997 503.371 808.463 519.727 788.015 C 490.116 764.263 469.043 741.841 454.438 706.182 C 418.607 618.7 453.317 540.35 545.437 515.032 C 549.981 497.362 554.358 483.14 567.01 469.219 C 590.715 443.139 620.662 432.95 654.492 430.416 z"/>
<path transform="translate(0,0)" fill="url(#Gradient1)" d="M 1374.78 431.172 C 1383.58 431.019 1391.96 431.001 1400.75 431.35 C 1450.62 433.331 1503.8 461.999 1511.28 516.052 C 1616.56 545.101 1643.48 640.869 1589.98 731.859 C 1575.75 756.05 1559.19 771.637 1537.33 788.932 C 1551.23 809.568 1559.07 828.516 1557.75 854.046 C 1556.5 877.456 1546.09 899.434 1528.77 915.234 C 1518.27 924.682 1505.66 931.482 1491.99 935.065 C 1459.08 943.608 1398.76 933.888 1363.69 931.719 C 1360.54 982.229 1340.17 1027.58 1298.43 1057.84 C 1263.41 1082.8 1219.93 1092.88 1177.51 1085.86 C 1137.89 1079.25 1102.53 1057.16 1079.23 1024.44 C 1044.62 976.134 1037.94 910.436 1046.88 852.963 C 1058.78 776.446 1107.38 734.106 1165.55 688.975 C 1184.35 674.392 1204.31 658.496 1223.78 644.653 C 1233.49 653.236 1239.16 665.463 1229.45 676.269 C 1200.78 708.168 1164.41 735.188 1133.59 764.953 C 1095.48 801.762 1081.28 843.365 1081.02 895.876 C 1080.8 938.406 1091.78 987.641 1123.2 1018.56 C 1145.06 1039.68 1174.35 1051.36 1204.74 1051.1 C 1236.64 1051.01 1267.19 1038.2 1289.61 1015.51 C 1312.87 992.061 1325.73 960.241 1325.28 927.212 C 1313.57 925.386 1298.05 924.293 1285.98 923.169 C 1276.32 934.103 1253.82 953.781 1241.57 966.301 C 1230.18 979.161 1208.82 1015.5 1190.52 997.684 C 1180.03 987.471 1186.78 974.857 1194.12 965.499 C 1213.11 941.268 1236.1 917.735 1259.13 897.266 C 1259.03 884.995 1260.15 872.195 1260.69 859.922 C 1263.52 795.583 1281.61 741.023 1332.42 698.936 C 1382.62 657.349 1439.61 642.278 1504.31 648.488 C 1516.85 649.691 1531.02 654.299 1528.39 670.263 C 1524.3 692.232 1495.43 683.877 1478.68 683.367 C 1415.73 681.448 1352.21 715.879 1320.77 770.688 C 1309.35 790.604 1305.25 810.282 1301.37 832.59 C 1355.5 834.122 1410.04 831.803 1464.19 833.365 C 1486.9 834.02 1483.99 865.131 1466.56 866.445 C 1450 867.693 1431.05 867.089 1414.23 867.079 C 1375.51 866.911 1336.79 866.968 1298.07 867.251 L 1298.13 887.746 C 1348.9 894.071 1420.78 902.935 1471.92 900.696 C 1520.02 898.591 1536.88 834.132 1492.79 800.005 C 1464.94 799.057 1434.13 800.365 1407.43 798.802 C 1390.83 789.024 1389.61 769.534 1409.82 764.204 C 1416.36 762.48 1436.35 763.641 1443.97 763.664 L 1507.46 763.708 C 1537.2 740.408 1557.76 718.628 1570.5 682.311 C 1591.51 622.43 1566.11 573.846 1507.49 553.16 C 1498.06 576.419 1482.31 593.131 1459.29 603.566 C 1451.54 607.055 1443.43 609.677 1435.1 611.385 C 1420.99 614.202 1364.8 620.314 1360.25 600.822 C 1352.86 569.151 1395.98 579.366 1413.3 577.36 C 1422.18 576.331 1428.52 575.91 1437.29 572.693 C 1451.19 567.609 1462.47 557.151 1468.59 543.669 C 1473.87 531.959 1473.68 521.254 1469.09 509.864 C 1454.7 474.225 1414.58 467.01 1380.38 467.376 C 1370.65 467.48 1361.46 463.383 1358.54 453.052 C 1357.37 448.802 1358 444.26 1360.29 440.493 C 1363.97 434.311 1368.2 432.631 1374.78 431.172 z"/>
<path transform="translate(0,0)" fill="rgb(1,202,145)" d="M 1028.44 465.739 C 1032.63 469.489 1040.46 479.413 1044.01 484.045 C 1068.26 515.734 1085.74 550.916 1088.05 591.197 C 1091.43 650.23 1067.15 694.503 1029.23 737.433 C 1021.81 732.336 1011.35 717.992 1006.1 710.469 C 984.667 679.758 971.093 646.743 969.139 609.136 C 966.277 554.063 991.988 505.393 1028.44 465.739 z"/>
<path transform="translate(0,0)" fill="rgb(1,202,145)" d="M 1320.11 360.407 L 1339.12 359.794 C 1340.13 397.295 1324.29 443.221 1301.44 472.743 C 1269.09 514.532 1225.82 532.748 1175.04 539.685 C 1168.63 540.166 1161.16 541.117 1154.71 541.795 C 1155.42 533.39 1156.04 524.918 1157.21 516.561 C 1169.4 429.257 1231.85 368.188 1320.11 360.407 z"/>
<path transform="translate(0,0)" fill="rgb(1,202,145)" d="M 723.143 362.025 C 726.901 361.969 730.66 362.026 734.414 362.196 C 782.812 364.243 822.627 379.446 856.312 415.266 C 885.098 445.877 906.746 499.08 904.878 541.214 C 860.551 541.061 809.067 523.026 776.768 492.191 C 741.76 458.769 724.528 409.589 723.143 362.025 z"/>
<path transform="translate(0,0)" fill="rgb(1,202,145)" d="M 1184.35 247.945 L 1186 249.005 C 1197.9 276.794 1197.69 330.964 1185.54 360.116 C 1166.28 406.34 1132.59 434.622 1087.55 454.164 L 1086.16 453.662 C 1085.66 452.947 1084.93 451.941 1084.68 451.098 C 1074.63 416.459 1072.19 381.008 1083.39 346.352 C 1098.3 300.17 1139.35 264.123 1184.35 247.945 z"/>
<path transform="translate(0,0)" fill="rgb(1,202,145)" d="M 873.337 249.264 C 875.419 249.715 877.473 250.287 879.489 250.976 C 888.036 253.965 896.118 258.24 903.932 262.746 C 975.343 303.921 1000.82 376.422 973.728 453.661 C 972.604 453.784 971.093 453.641 970.057 453.184 C 931.036 435.887 896.489 409.357 878.115 369.974 C 861.504 334.371 859.751 286.17 873.337 249.264 z"/>
<path transform="translate(0,0)" fill="rgb(1,202,145)" d="M 647.882 506.167 C 666.531 505.329 682.902 506.555 700.911 512.172 C 733.007 522.129 759.87 544.364 775.65 574.034 C 787.409 596.591 791.411 620.336 791.236 645.597 C 791.12 662.353 793.909 674.976 776.685 683.819 C 751.631 685.69 752.525 665.6 753.124 647.017 C 754.816 594.462 725.72 550.161 671.071 542.87 C 663.038 541.799 653.831 542.812 646.126 540.326 C 627.779 532.228 631.845 513.237 647.882 506.167 z"/>
<path transform="translate(0,0)" fill="rgb(1,202,145)" d="M 1385.16 507.418 C 1403.98 504.712 1415.58 504.459 1423.46 523.764 C 1416.87 547.022 1401.79 541.411 1382.42 544.542 C 1335.46 552.131 1307.79 588.503 1304.38 634.482 C 1303.42 647.394 1306.57 667.551 1299.67 678.41 C 1299.49 678.651 1299.3 678.893 1299.11 679.135 C 1283.47 693.566 1267.65 680.434 1266.03 661.731 C 1259.31 584.32 1302.7 515.203 1385.16 507.418 z"/>
<path transform="translate(0,0)" fill="rgb(1,202,145)" d="M 1028.52 165.805 C 1029.04 166.238 1029.56 166.672 1030.07 167.105 C 1078.63 220.543 1079.15 285.084 1028.64 337.75 C 1007.78 319.322 990.229 280.501 990.402 253.012 C 990.606 220.659 1006.16 188.653 1028.52 165.805 z"/>
</svg>