<svg version="1.1" xmlns="http://www.w3.org/2000/svg" style="display: block;" viewBox="0 0 2048 2048" width="1254" height="1254" preserveAspectRatio="none">
<path transform="translate(0,0)" fill="rgb(0,78,218)" d="M 1024.21 395.705 C 1041.31 366.307 1066.58 340.855 1096.69 324.859 C 1137.82 302.714 1186.09 297.912 1230.78 311.519 C 1275.96 325.469 1309.61 356.254 1331.5 397.561 C 1335.43 396.576 1338.92 396.06 1342.92 395.553 C 1418.51 385.979 1479.91 440.912 1488.32 515.363 C 1497.98 516.377 1510.98 519.909 1520.04 523.338 C 1629.39 564.716 1673.25 682.588 1636.16 788.572 C 1657.9 801.639 1677.12 818.519 1692.87 838.403 C 1728.48 883.887 1744.57 941.643 1737.63 998.986 C 1730.34 1060.5 1701.9 1105.78 1653.94 1143.36 C 1665.11 1172.71 1667.54 1215.49 1663.43 1246.32 C 1655.97 1302.28 1626.76 1353.04 1582.12 1387.6 C 1538.97 1420.55 1488.3 1434.3 1434.44 1426.95 C 1424.42 1456.84 1414.68 1479.47 1394.76 1504.36 C 1339.99 1572.77 1262.73 1603.14 1176.79 1595.08 C 1169.41 1594.14 1162.09 1592.82 1154.85 1591.1 C 1094.05 1576.75 1055.27 1544.05 1023.31 1492.2 C 932.229 1648.77 708.116 1620.16 626.312 1470.35 C 618.748 1456.5 613.928 1441.84 608.889 1426.96 C 510.226 1437.85 426.284 1384 390.501 1291.33 C 373.3 1246.79 372.732 1188.3 389.661 1143.43 C 369.227 1127.41 350.16 1109.52 336.619 1087.12 C 273.454 982.622 305.05 853.222 407.04 788.416 C 384.629 721.141 389.181 652.734 431.489 593.793 C 460.722 553.067 503.763 523.751 553.57 515.338 C 554.644 508.96 555.921 502.618 557.397 496.322 C 566.339 460.909 588.928 430.473 620.232 411.656 C 648.685 394.585 684.721 390.215 716.748 398.092 C 723.411 385.129 729.199 375.424 738.757 364.213 C 768.097 329.322 810.285 307.761 855.749 304.421 C 869.465 302.59 892.939 304.784 906.493 308.011 C 960.913 320.968 994.976 349.893 1024.21 395.705 z M 608.654 1375.21 C 619.518 1372.59 629.905 1368.8 640.481 1374.79 C 656.241 1383.7 654.398 1402.3 659.581 1417.52 C 673.886 1458.53 701.871 1493.36 738.833 1516.16 C 817.378 1565.62 923.458 1555.57 974.975 1473.02 C 987.873 1451.94 995.626 1428.12 997.606 1403.49 C 998.833 1389.13 998.245 1367.35 998.235 1352.49 L 998.163 1264.63 L 998.176 983.075 L 998.186 628.273 L 998.168 536.101 C 998.19 511.155 1000.26 481.848 994.354 457.894 C 979.163 396.27 931.798 356.774 869.02 354.47 C 836.466 355.51 805.97 366.334 783.223 390.386 C 775.877 398.076 769.599 406.719 764.559 416.084 C 757.646 429.219 753.765 453.91 735.534 454.967 C 724.696 455.596 713.94 449.613 703.653 446.788 C 676.201 439.248 645.686 449.177 626.402 469.76 C 594.814 503.476 610.793 540.732 597.32 556.256 C 587.563 567.499 560.345 564.887 545.875 569.654 C 480.431 591.215 442.142 653.938 444.764 721.424 C 445.185 735.609 447.566 749.668 451.839 763.201 C 457.354 781.159 474.183 799.7 458.118 817.809 C 453.169 823.389 432.234 832.38 424.025 838.217 C 381.432 868.946 355.879 918.005 355.113 970.52 C 354.108 1011.62 370.172 1054.56 398.904 1084.16 C 404.035 1089.43 409.603 1094.25 415.547 1098.58 C 424.95 1105.31 448.257 1117 447.16 1129.84 C 445.963 1143.84 437.663 1161.1 433.334 1175.2 C 402.245 1276.49 499.715 1401.81 608.654 1375.21 z M 1441.77 1376.75 C 1528.59 1388.26 1602.87 1321.67 1613.35 1237.31 C 1615.69 1219.25 1615.16 1200.93 1611.76 1183.04 C 1610.62 1177.29 1607.75 1165.36 1605.44 1160.23 C 1584.47 1113.55 1603.21 1119.58 1633.33 1094.46 C 1662.81 1069.39 1681.88 1034.23 1686.82 995.849 C 1693.04 951.524 1681.03 906.57 1653.53 871.251 C 1643.73 858.534 1632.15 847.293 1619.14 837.875 C 1603.06 826.26 1574.93 821.183 1578.58 796.494 C 1579.99 786.948 1588.17 772.843 1591.61 761.453 C 1606.87 710.884 1598.77 662.746 1567.89 619.71 C 1548.6 592.841 1515.94 571.766 1483.15 566.174 C 1469.36 563.821 1452.6 566.756 1443.08 553.21 C 1435.61 542.573 1439.08 524.608 1436.86 510.809 C 1431.87 479.726 1405.35 451.685 1374.41 445.687 C 1365.16 443.822 1355.61 443.963 1346.42 446.102 C 1331.75 449.439 1310.21 463.801 1297.74 446.044 C 1292.94 439.21 1288.58 424.964 1284.15 416.527 C 1267.84 385.821 1238.67 364.005 1204.6 357.043 C 1195.31 355.128 1182.91 354.069 1173.39 354.404 C 1105.13 362.04 1057.7 408.034 1049.68 477.86 C 1047.61 495.909 1048.75 517.099 1048.74 535.442 L 1048.72 639.61 L 1048.77 971.604 L 1048.79 1271.03 L 1048.73 1356.71 C 1048.71 1365.27 1048.99 1374.78 1048.69 1383.24 C 1045.05 1485.33 1129.67 1558.14 1229.64 1544.4 C 1279.78 1537.19 1325.07 1510.53 1355.71 1470.2 C 1365.12 1458.01 1372.87 1444.63 1378.74 1430.39 C 1381.41 1424.03 1383.69 1417.51 1385.58 1410.88 C 1389.97 1395.33 1392.12 1374.78 1411.97 1371.86 C 1422.26 1370.34 1433.22 1376.12 1441.77 1376.75 z"/>
<path transform="translate(0,0)" fill="rgb(0,78,218)" d="M 592.207 798.156 C 598.536 797.484 603.316 797.68 609.087 800.489 C 623.722 807.61 622.334 817.095 624.012 830.96 C 624.488 834.889 627.508 844.57 628.902 848.583 C 639.293 878.51 667.445 905.161 697.691 914.351 C 718.55 920.689 731.318 921.083 752.418 931.167 C 794.761 951.643 827.312 988.002 842.997 1032.34 C 858.196 1076.48 855.254 1124.84 834.818 1166.8 C 825.962 1184.9 797.2 1234.35 770.353 1220.4 C 757.055 1213.49 752.32 1194.91 762.517 1183.05 C 772.144 1171.85 779.722 1162.61 787.116 1149.51 C 810.743 1107.4 805.931 1054.16 777.837 1015.42 C 759.291 989.321 731.019 971.782 699.396 966.759 C 666.62 961.843 629.837 974.696 610.334 1002.05 C 603.646 1011.24 600.082 1021.05 590.765 1028.1 C 580.773 1035.66 564.635 1031.53 557.959 1021.59 C 554.425 1016.34 553.629 1005.35 555.836 999.275 C 568.064 965.592 594.453 945.078 624.866 928.563 C 599.064 902.816 581.204 875.862 575.467 839.091 C 572.458 819.802 573.038 807.355 592.207 798.156 z"/>
<path transform="translate(0,0)" fill="rgb(0,78,218)" d="M 877.084 553.118 C 915.197 550.91 906.726 602.486 899.684 625.213 C 887.993 662.943 864.038 686.925 829.773 704.887 C 834.579 732.201 842.649 752.942 863.861 772.26 C 873.374 780.924 886.171 784.245 890.09 796.699 C 892.122 803.092 891.433 810.039 888.184 815.908 C 884.918 821.877 879.329 826.23 872.742 827.934 C 854.958 832.356 833.142 812.084 821.655 800.573 C 801.515 780.389 789.555 755.383 783.692 727.725 L 781.066 716.134 C 752.684 716.974 727.695 713.739 702.222 700.172 C 676.3 686.365 653.268 664.198 644.352 635.663 C 649.331 616.085 664.005 602.223 684.636 615.672 C 691.09 619.878 695.89 630.444 701.199 636.79 C 706.454 642.952 712.565 648.327 719.346 652.753 C 740.339 666.121 765.834 670.464 790.069 664.801 C 825.163 656.829 850.052 632.111 855.954 595.902 C 857.529 586.24 852.832 573.08 859.562 563.73 C 864.294 557.155 869.541 554.757 877.084 553.118 z"/>
<path transform="translate(0,0)" fill="rgb(0,78,218)" d="M 608.67 1188.42 C 609.135 1188.32 609.601 1188.23 610.067 1188.13 C 653.518 1185.27 691.447 1195.9 725.163 1222.23 C 756.956 1246.66 777.52 1282.91 782.182 1322.73 C 784.159 1339.78 780.986 1358.01 759.09 1360.12 C 751.429 1360.86 744.514 1356.53 738.982 1351.4 C 731.545 1339.8 733.664 1333.64 731.489 1320.51 C 727.312 1295.3 708.504 1271.48 688.111 1256.98 C 665.154 1240.89 636.532 1234.68 608.852 1237.99 C 594.939 1239.65 582.467 1247.96 569.544 1238.09 C 563.91 1233.72 560.289 1227.26 559.507 1220.17 C 556.513 1193.43 590.009 1190.41 608.67 1188.42 z"/>
<path transform="translate(0,0)" fill="rgb(0,78,218)" d="M 1425.35 840.172 C 1480.28 836.971 1444.06 906.913 1429.57 928.847 C 1414.9 951.049 1398.28 967.07 1376.73 982.289 C 1414.2 1001.85 1448.07 1043.31 1456.25 1085.17 C 1462.52 1117.24 1421.5 1128 1411.84 1103.7 C 1399.39 1072.38 1397.05 1061.05 1369.57 1037.28 C 1316.15 998.49 1296.45 1021.26 1236.81 1013.9 C 1227.29 1012.72 1218.05 1011.46 1208.98 1008.34 C 1192.43 1003.03 1185.38 988.112 1193.12 972.315 C 1202.2 954.018 1221.4 960.528 1236.8 963.651 C 1301.93 976.865 1370.15 942.175 1398.8 882.442 C 1407.97 863.344 1402.94 848.877 1425.35 840.172 z"/>
<path transform="translate(0,0)" fill="rgb(0,78,218)" d="M 1166.17 553.127 C 1195.7 552.441 1192.52 577.103 1193.4 597.332 C 1195.15 637.274 1234.21 670.33 1273.99 665.148 C 1295.29 662.373 1320.91 644.511 1333.99 673.437 C 1336.97 680.198 1334.95 686.344 1331.94 692.593 C 1325.43 706.117 1309.69 705.949 1297.31 710.329 C 1266.2 722.051 1246.78 740.007 1231.95 768.809 C 1224.69 787.271 1226.17 818.235 1202.91 820.809 C 1196.11 821.605 1189.3 819.492 1184.14 814.991 C 1170.15 802.989 1176.2 779.974 1180.44 764.682 C 1186.86 741.549 1199.98 722.98 1215.37 705.044 C 1210.5 702.067 1205.2 699.069 1200.47 695.973 C 1172.26 677.873 1152.5 649.194 1145.65 616.382 C 1141.02 594.278 1137.26 558.91 1166.17 553.127 z"/>
<path transform="translate(0,0)" fill="rgb(0,78,218)" d="M 1193.09 1171.2 C 1225.27 1168.83 1221.27 1194.17 1225.84 1215.4 C 1227.92 1224.87 1231.29 1234.01 1235.85 1242.56 C 1250.74 1270.37 1275.03 1291.99 1304.38 1303.54 C 1314.55 1307.6 1341.65 1312.71 1346.47 1322.92 C 1353.85 1338.57 1346.86 1352.94 1330.94 1359.47 C 1317.8 1361.29 1300.52 1355.37 1288.21 1350.71 C 1228.87 1328.19 1180.43 1273.51 1174.28 1209.11 C 1172.52 1190.7 1174.29 1178.54 1193.09 1171.2 z"/>
</svg>