<svg version="1.1" xmlns="http://www.w3.org/2000/svg" style="display: block;" viewBox="0 0 2048 2048" width="1254" height="1254" preserveAspectRatio="none">
<path transform="translate(0,0)" fill="rgb(0,63,199)" d="M 952.436 412.425 C 1032.96 409.207 1126.09 426.394 1200.02 457.975 C 1224.91 468.605 1221.13 515.893 1174.91 497.901 C 1072.91 457.21 961.07 447.954 853.768 471.322 C 703.835 502.395 572.357 591.689 488.194 719.603 C 403.405 848.255 373.308 1005.36 404.547 1156.24 C 437.553 1307.5 529.134 1439.53 659.25 1523.43 C 790 1608.76 949.515 1638.09 1102.07 1604.84 C 1249.64 1572.11 1378.5 1482.82 1460.97 1356.15 C 1547.35 1221.65 1572.01 1067.16 1538.19 911.759 C 1534.23 888.024 1524.19 862.992 1516.64 840.203 C 1511.65 825.116 1497.34 804.17 1508.67 789.822 C 1512.94 784.439 1519.27 781.092 1526.13 780.593 C 1547.14 779.245 1553.2 804.956 1559.07 820.792 C 1581.38 879.673 1594.66 941.588 1598.46 1004.44 C 1609.17 1169.89 1553.07 1332.72 1442.72 1456.47 C 1332.14 1580.74 1176.28 1655.39 1010.13 1663.64 C 843.324 1672.41 679.757 1615.23 554.732 1504.46 C 429.984 1394.75 354.605 1239.48 345.564 1073.59 C 335.844 903.757 395.262 744.237 508.251 618.001 C 596.313 519.579 713.673 452.059 843.022 425.4 C 880.351 417.787 914.619 414.47 952.436 412.425 z"/>
<path transform="translate(0,0)" fill="rgb(0,63,199)" d="M 1463.5 319.193 C 1490.11 318.383 1491.39 336.984 1493.42 357.382 C 1498.02 403.644 1504.13 449.7 1508.54 495.992 L 1668.05 501.989 C 1680.62 502.545 1691.51 502.056 1698.67 514.235 C 1702.93 521.471 1702.69 534.777 1697.23 541.179 C 1686.48 553.759 1674.15 565.247 1662.56 577.068 C 1639.34 601.165 1615.91 625.064 1592.29 648.76 L 1540.92 700.982 C 1533.49 708.502 1520.36 722.335 1512.66 728.581 L 1511.15 729.788 C 1508.92 731.6 1506.53 733.55 1503.5 733.517 C 1443.22 732.848 1381.25 726.984 1321.09 724.306 C 1312.45 732.186 1301.36 744.437 1292.99 753.027 L 1246.84 799.518 L 1078.69 968.062 L 1017.34 1029.49 C 1007.05 1039.85 983.497 1067.47 969.503 1068.56 C 963.301 1069.06 957.172 1066.93 952.621 1062.68 C 941.976 1052.78 942.982 1038.45 952.866 1028.34 C 1063.62 915.013 1177.1 804.078 1288.13 691.021 C 1286.98 666.485 1271.66 510.734 1276.02 501.436 C 1278.27 496.645 1282.35 491.89 1285.91 487.971 C 1312.26 459.01 1341.7 432.004 1369.44 404.306 C 1385.51 388.254 1401.95 372.615 1418.13 356.675 C 1428.68 346.282 1439.06 334.746 1450.46 325.325 C 1454.38 322.084 1458.71 320.693 1463.5 319.193 z M 1363.43 680.033 C 1393.43 682.134 1423.46 683.82 1453.52 685.089 C 1457.8 685.29 1484.93 686.8 1488.14 686.336 C 1514.03 659.708 1540.12 633.279 1566.41 607.052 C 1585.77 587.511 1604.76 567.496 1624.25 548.159 C 1609.83 546.378 1590.86 546.426 1575.82 545.811 C 1550.33 544.767 1523.8 543.204 1498.35 543.108 L 1363.43 680.033 z M 1333.08 644.124 C 1362.58 611.495 1398.56 579.243 1429 547.008 C 1439.44 535.949 1452.74 523.94 1462.47 512.568 C 1460.55 485.466 1456.95 457.478 1454.41 430.32 C 1453.82 424.004 1451.24 396.674 1449.7 391.842 C 1423.78 417.018 1398.1 442.441 1372.67 468.107 C 1356.4 484.371 1337.84 502.231 1322.17 518.77 C 1323.59 535.249 1330.06 638.57 1332.56 644.438 L 1333.08 644.124 z"/>
<path transform="translate(0,0)" fill="rgb(0,63,199)" d="M 940.546 644.413 C 946.742 643.595 963.878 643.69 970.352 643.734 C 1027.05 643.705 1083.02 656.421 1134.14 680.941 C 1153.13 690.283 1203.66 711.32 1186.46 737.885 C 1170.92 761.897 1146.34 740.567 1129.19 731.084 C 1120.24 726.218 1111.13 721.663 1101.87 717.428 C 1036.36 687.458 952.581 683.549 883.191 701.051 C 790.566 723.793 710.879 782.628 661.877 864.454 C 614.025 944.135 600.061 1039.66 623.101 1129.7 C 646.748 1222.32 706.507 1301.62 789.028 1349.87 C 871.999 1398.56 967.602 1413.59 1061.09 1389.04 C 1149.67 1365.15 1225.29 1307.35 1271.59 1228.14 C 1322.37 1140.97 1332.87 1045.31 1307.34 948.431 C 1298.46 920.732 1289.35 894.515 1273.77 869.727 C 1266.67 858.427 1257.72 844.761 1266.82 831.83 C 1270.44 826.754 1275.95 823.353 1282.11 822.395 C 1303.44 819.08 1313.03 843.231 1321.21 858.719 C 1345.65 904.934 1359.73 953.641 1365.13 1005.6 C 1376.15 1111.9 1344.64 1218.24 1277.48 1301.37 C 1212.01 1382.41 1116.96 1434.04 1013.34 1444.85 C 903.735 1455.74 794.348 1422.17 709.723 1351.67 C 628.641 1284.07 577.392 1187.29 567.035 1082.23 C 556.594 978.041 588.117 873.987 654.625 793.108 C 729.532 702.431 824.552 655.439 940.546 644.413 z"/>
<path transform="translate(0,0)" fill="rgb(0,63,199)" d="M 948.738 861.385 C 953.163 860.462 970.584 860.559 975.124 860.894 C 994.422 862.319 1031.99 863.984 1030.01 891.617 C 1029.54 898.189 1026.25 904.238 1020.98 908.195 C 1012.11 914.916 988.075 908.306 976.562 907.326 C 939.679 904.49 903.177 916.389 875.051 940.416 C 815.03 991.261 809.034 1078.18 860.368 1137.46 C 884.554 1165.58 919.002 1182.84 956.008 1185.37 C 992.62 1187.86 1028.69 1175.52 1056.11 1151.13 C 1087.83 1123.08 1105.19 1082.23 1103.36 1039.93 C 1102.99 1028.83 1099.19 1016.27 1099.94 1005.49 C 1101.48 983.311 1127.98 978.182 1141.3 994.914 C 1144.58 1000.85 1146.07 1008.13 1147.17 1014.8 C 1155.18 1064.53 1143.1 1115.41 1113.6 1156.25 C 1085.18 1195.52 1042.35 1221.92 994.504 1229.67 C 944.913 1237.19 894.375 1224.52 854.205 1194.48 C 814.27 1164.52 787.931 1119.87 781.023 1070.42 C 774.313 1022.17 787.371 973.245 817.237 934.754 C 851.672 889.763 893.786 868.873 948.738 861.385 z"/>
</svg>