<svg version="1.1" xmlns="http://www.w3.org/2000/svg" style="display: block;" viewBox="0 0 2048 2048" width="1254" height="1254" preserveAspectRatio="none">
<path transform="translate(0,0)" fill="rgb(254,254,254)" d="M 1020.36 335.414 C 1063.34 332.551 1127.96 349.25 1166.24 370.264 C 1252.73 418.546 1314.14 509.498 1319.54 609.246 C 1321.57 646.765 1319.72 687.941 1319.92 725.735 C 1320.08 757.517 1321.18 788.153 1319.04 819.798 C 1327.03 819.335 1335.02 819.08 1343.02 819.031 C 1391 818.792 1431 833.148 1465.52 866.736 C 1517.85 917.64 1515.77 969.091 1515.61 1035.99 L 1515.4 1140.49 L 1515.46 1499.5 C 1515.36 1565.15 1510.33 1599.37 1462.25 1648.74 C 1444.59 1664.87 1413.84 1682.73 1390.27 1686.58 C 1347.79 1693.51 1300.85 1690.59 1258.12 1690.69 L 1027.68 1690.35 C 1004.65 1689.94 980.43 1690.92 957.241 1690.97 L 754.973 1690.77 C 728.581 1690.51 692.899 1693.01 667.649 1688.58 C 636.121 1683.05 614.477 1671.38 590.164 1651.88 C 563.745 1630.69 535.136 1583.31 533.161 1550.17 C 531.302 1518.95 532.841 1480.44 532.674 1448.16 L 532.788 1208.1 L 532.58 1042.56 C 532.926 979.323 525.873 934.32 568.833 881.693 C 607.255 834.625 654.712 818.756 714.741 818.801 C 724.773 818.808 729.362 816.575 729.814 806.346 C 731.124 787.844 729.092 768.877 729.59 750.404 C 732.241 652.125 716.789 569.33 771.496 480.318 C 817.57 405.351 885.962 356.547 973.519 340.207 C 989.278 337.266 1004.72 336.622 1020.36 335.414 z M 1352.24 1599.66 C 1375.53 1598.18 1390.74 1591.95 1406.68 1574.32 C 1433.4 1544.75 1424.34 1501.32 1425.51 1465.35 C 1426.55 1433.16 1425.16 1401.25 1425.53 1369.3 C 1426.41 1279.73 1426.49 1190.15 1425.78 1100.57 L 1425.93 1014.86 C 1425.76 980.491 1429.38 953.747 1400.4 928.744 C 1388.14 918.161 1374.14 912.129 1357.93 910.581 C 1330.94 908.442 1302.97 910.5 1275.8 910.153 C 1195.24 909.459 1114.67 909.29 1034.11 909.648 L 803.971 909.694 L 734.597 909.653 C 722.066 909.638 704.188 908.808 692.191 910.373 C 668.975 913.17 654.002 920.325 638.615 938.943 C 612.684 970.317 623.66 1017.72 622.945 1055.21 C 622.677 1069.26 621.845 1083.14 621.579 1097.16 C 621.424 1114.95 622.867 1133.1 622.698 1150.63 L 621.617 1412.52 L 621.557 1492.88 C 621.712 1527.99 618.925 1561.47 651.303 1585.43 C 662.746 1593.9 674.785 1598.32 689.031 1599.31 C 719.163 1600.98 750.573 1599.93 780.759 1599.79 L 962 1599.2 L 1230.99 1599.76 L 1314.51 1599.38 C 1325.25 1599.38 1342.39 1600.36 1352.24 1599.66 z M 817.827 819.014 C 841.792 819.043 865.529 820.626 889.5 820.465 C 933.855 820.169 978.408 821.06 1022.75 820.703 C 1046.36 820.934 1069.86 819.542 1093.34 819.699 L 1179.01 819.639 C 1196.16 819.613 1213.31 820.238 1230.44 819.455 L 1230.13 692.257 C 1230.02 633.38 1235.61 580.485 1202.89 528.283 C 1192.48 511.661 1186.88 501.873 1172.01 487.315 C 1139.71 455.689 1098.46 434.737 1053.72 428.039 C 1043.55 426.516 1030.1 426.511 1019.8 426.465 C 967.922 428.604 907.882 454.091 872.939 492.961 C 812.71 559.958 819.407 621.166 818.862 701.372 L 818.869 788.245 C 818.838 798.456 817.736 809.128 817.827 819.014 z"/>
<path transform="translate(0,0)" fill="rgb(254,254,254)" d="M 1024.87 1064.48 C 1112.08 1066.83 1172.98 1138.93 1157.81 1225.29 C 1151.24 1262.7 1135.73 1280.63 1110 1307.55 C 1109.62 1315.91 1108.54 1333.07 1109.45 1341 C 1116.73 1403.96 1097.82 1460.92 1026.21 1464.32 C 1002.85 1464.13 984.933 1457.43 967.829 1441.94 C 942.774 1419.25 942.406 1394.35 941.067 1362.93 C 940.757 1355.66 937.336 1343.16 936.743 1335.06 C 935.979 1324.62 936.823 1314.86 936.436 1304.35 C 914.477 1278.64 900.83 1262.99 893.707 1228.48 C 891.906 1218.59 888.871 1207.83 889.224 1197.65 C 891.867 1121.43 953.352 1065.99 1024.87 1064.48 z M 1037.69 1395.43 C 1041.69 1393.31 1043.75 1391.52 1044.93 1386.87 C 1050.16 1366.11 1046.05 1343.91 1046.71 1322.67 C 1047.34 1302.68 1046.58 1280.46 1048.45 1260.66 C 1050.93 1248.54 1067.51 1240.37 1073.5 1231.48 C 1084.32 1215.43 1085.43 1189.02 1075.42 1172.38 C 1060.81 1148.06 1038.4 1142.8 1012.46 1144.19 C 966.835 1158.39 952.451 1211.02 988.676 1244.17 C 993.305 1248.38 1002.54 1257.17 1003.13 1263.71 C 1006.64 1302.74 1000.2 1344.14 1005.99 1382.85 C 1008.42 1399.12 1024.36 1402.96 1037.69 1395.43 z"/>
</svg>