<svg version="1.1" xmlns="http://www.w3.org/2000/svg" style="display: block;" viewBox="0 0 2048 2048" width="1254" height="1254" preserveAspectRatio="none">
<path transform="translate(0,0)" fill="rgb(0,63,201)" d="M 897.954 758.42 C 913.839 757.805 933.392 758.308 949.547 758.301 L 1050.52 758.3 L 1114.97 758.303 C 1153.79 758.333 1179.97 757.343 1215.64 776.376 C 1274 807.522 1288.91 850.404 1305.86 909.652 C 1311.66 930.12 1317.81 950.489 1324.3 970.748 C 1336.51 1008.94 1351.93 1058.5 1373.07 1091.68 C 1394.58 1125.44 1442.74 1148.08 1477.46 1166.01 C 1505.52 1142.96 1547.01 1116.59 1584.35 1129.64 C 1621.79 1142.73 1631.92 1180.87 1620.17 1215.39 C 1626.52 1213.18 1632.59 1210.87 1639.11 1209.72 C 1650.88 1207.79 1663.28 1212.4 1663.38 1226.02 C 1663.44 1233.63 1659.8 1240.87 1655.62 1247.12 C 1635.31 1277.45 1603.32 1299.57 1568.18 1309.04 C 1551.65 1313.5 1536.52 1314.03 1519.76 1314.04 C 1543.5 1352.79 1540.78 1406.71 1515.16 1443.92 C 1463.14 1519.47 1357.03 1531.1 1272.54 1529.6 C 1234.19 1528.92 1196.63 1523.81 1158.34 1523.76 C 1139.61 1523.71 1113.98 1528.43 1095.72 1532.19 C 1025.39 1548.51 959.244 1579.65 888.162 1592.79 C 838.078 1602.05 786.275 1586.1 777.767 1529.74 C 709.605 1530.85 644.242 1525.5 583.219 1491.28 C 520.71 1456.22 488.013 1379.1 526.995 1314.02 C 508.16 1314.24 494.652 1313.38 475.939 1308.15 C 440.011 1298.01 407.084 1273.48 388.049 1241.25 C 382.485 1231.83 380.41 1216.72 392.406 1211.17 C 403.601 1205.98 416.326 1211.58 426.96 1215.74 C 414.427 1175.85 428.806 1134.29 474.545 1127.13 C 509.849 1121.6 543.197 1145.29 569.825 1166.09 C 600.854 1150.22 634.7 1133.63 659.74 1108.93 C 668.55 1100.31 676.065 1090.45 682.05 1079.67 C 691.232 1063 699.514 1039.58 705.99 1021.5 C 719.631 983.207 731.98 944.468 743.016 905.347 C 752.86 871.101 759.903 843.8 783.862 815.646 C 814.802 779.285 851.201 762.565 897.954 758.42 z M 448.324 1253.77 C 478.156 1275.19 507.129 1281.5 543.476 1274.03 C 564.527 1269.7 580.065 1260.75 599.509 1253.93 C 665.11 1230.91 741.303 1203.76 773.298 1136.36 C 796.435 1087.63 815.685 1033.85 830.544 981.789 C 832.159 976.184 832.921 970.489 835.713 965.244 C 844.705 947.649 859.666 947.238 870.849 962.978 C 872.588 976.948 872.68 998.909 873.099 1013.49 L 875.346 1096.08 C 876.847 1158.13 889.065 1237.27 849.738 1289.6 C 848.98 1290.6 848.182 1291.58 847.346 1292.52 C 949.602 1347.29 1007.14 1395.66 1122.02 1333.91 C 1147.6 1320.34 1173.85 1305.87 1199.56 1292.8 C 1186.41 1271.26 1177.08 1254.39 1172.6 1228.84 C 1170.96 1219.54 1170.05 1210.11 1169.88 1200.66 C 1168.73 1149.12 1171.98 1091.13 1173.34 1039.15 L 1174.51 998.045 C 1174.86 980.181 1171.05 945.244 1200.51 953.006 C 1215.68 959.976 1220.27 996.687 1225.71 1011.36 C 1245.25 1064.06 1264.18 1138.34 1303.83 1179.06 C 1341.69 1217.93 1399.16 1235.1 1447.51 1254.31 C 1508.18 1278.42 1540.84 1290.62 1599.51 1253.78 C 1533.85 1257.99 1523.72 1246.2 1474.88 1206.55 C 1466.92 1200.08 1447.89 1193.74 1438.81 1188.11 C 1412.25 1174.61 1391.51 1162.31 1368.86 1142.7 C 1335.58 1113.91 1321 1075.27 1306.59 1034.78 C 1295.27 1002.39 1284.74 969.733 1275 936.835 C 1268.7 915.313 1260.4 880.95 1251.12 862.407 C 1236.34 833.331 1210.7 811.247 1179.75 800.935 C 1172.04 798.398 1156.33 795.31 1148.34 795.398 C 1065.36 796.319 980.114 792.616 897.333 795.325 C 858.869 800.722 832.866 812.815 808.025 844.472 C 789.542 868.026 785.15 895.388 776.822 923.528 C 767.023 956.687 756.558 989.646 745.433 1022.38 C 735.129 1052.09 723.682 1085.63 705.961 1111.82 C 675.277 1156.54 624.839 1180.54 577.608 1203.65 C 571.135 1206.82 560.524 1215.27 555.327 1220.12 C 521.887 1251.31 493.391 1258.19 448.324 1253.77 z M 942.229 1541.3 C 1003.89 1520.97 1065.69 1496.88 1130.5 1489.27 C 1172.62 1484.27 1216.22 1490.38 1258.17 1492.4 C 1307.44 1494.78 1356.44 1491.66 1403.72 1477.12 C 1418.86 1472.46 1429.55 1467.04 1442.76 1460.16 C 1516.03 1422.01 1519.9 1328.61 1442.71 1292.43 C 1420.12 1281.84 1386.67 1274.35 1361.48 1278.41 C 1274.14 1285.3 1206.03 1334.13 1129.94 1371.14 C 1075.65 1397.55 1017.07 1425.41 961.165 1448.37 C 936.32 1458.74 911.239 1468.53 885.942 1477.75 C 868.71 1483.87 851.245 1489.24 834.287 1495.64 C 821.962 1500.29 812.105 1513.23 814.392 1526.37 C 823.861 1580.78 910.642 1551.04 942.229 1541.3 z M 838.23 1455.29 C 875.474 1444.03 911.739 1428.51 947.714 1413.85 C 959.546 1409.03 975.689 1401.15 987.18 1397.07 C 879.993 1369.98 769.352 1266.51 657.439 1278.5 C 621.927 1281.42 591.01 1293.46 567.545 1320.8 C 534.457 1359.37 544.256 1415.51 583.134 1446.01 C 639.211 1489.99 717.086 1494.35 785.506 1492.79 C 798.918 1469.91 813.532 1462.9 838.23 1455.29 z M 1234.47 1276.27 C 1253.44 1266.38 1283.6 1255.4 1304.76 1250.5 C 1314.45 1247.96 1322.12 1246.34 1332.14 1245.24 C 1273.99 1211.12 1252.44 1183.97 1226.12 1121.3 C 1223.34 1114.69 1211.37 1082.73 1208.9 1078.52 C 1210.14 1124.19 1198.87 1200.56 1214.47 1241.25 C 1219.51 1254.37 1227.09 1264.55 1234.47 1276.27 z M 1558.01 1163.26 C 1538.38 1167.14 1526.83 1176.35 1510.87 1188.03 C 1518.55 1194.46 1536.2 1209.85 1545.47 1212.98 C 1595.62 1236.47 1603.88 1156.1 1558.01 1163.26 z M 747.769 1251.67 C 769.674 1258.23 792.519 1265.95 813.057 1276 C 830.186 1253.55 839.935 1231.22 840.388 1202.6 C 840.92 1169.07 840.149 1135.41 838.937 1101.91 C 838.749 1096.96 838.711 1083.44 837.637 1079.67 C 814.015 1146.82 783.186 1212.67 715.125 1244.95 L 714.366 1245.3 C 726.694 1246.44 735.78 1248.75 747.769 1251.67 z M 480.032 1163.17 C 472.32 1164.62 467.412 1167.37 462.886 1173.98 C 454.227 1186.64 458.237 1206.03 471.697 1213.69 C 483.834 1220.59 496.46 1215.77 507.774 1209.84 C 518.949 1202.79 525.873 1196.73 535.864 1187.99 C 520.75 1175.93 500.53 1161.15 480.032 1163.17 z"/>
<path transform="translate(0,0)" fill="rgb(0,63,201)" d="M 1012.34 417.665 C 1099.11 410.665 1175.11 475.357 1182.05 562.125 C 1188.99 648.893 1124.25 724.849 1037.48 731.738 C 950.787 738.621 874.915 673.952 867.977 587.262 C 861.039 500.572 925.66 424.658 1012.34 417.665 z M 1033.45 694.096 C 1099.11 689.431 1148.73 632.707 1144.61 567.015 C 1140.5 501.323 1084.2 451.229 1018.48 454.785 C 951.963 458.384 901.134 515.511 905.295 581.992 C 909.455 648.474 967.01 698.818 1033.45 694.096 z"/>
</svg>