<svg version="1.1" xmlns="http://www.w3.org/2000/svg" style="display: block;" viewBox="0 0 2048 2048" width="1254" height="1254" preserveAspectRatio="none">
<path transform="translate(0,0)" fill="rgb(254,254,254)" d="M 1013.83 273.183 C 1024.13 272.728 1032.46 272.608 1041.34 278.768 C 1062.14 293.19 1079.14 313.227 1098.8 329.327 C 1134.23 358.331 1176.05 383.215 1217.35 402.716 C 1278.74 431.326 1343.93 450.978 1410.9 461.07 C 1448.5 466.747 1486.42 470.046 1524.43 470.946 C 1548.29 471.285 1572.24 470.516 1596.05 470.999 C 1608.58 471.253 1620.46 479.601 1627.7 489.376 C 1638.02 502.998 1636.97 519.424 1637.07 535.547 C 1637.38 584.578 1636.53 633.754 1637.17 682.783 L 1637.74 816.998 C 1638.22 870.023 1640.21 915.627 1636.39 969.697 C 1625.66 1120.01 1577.94 1265.33 1497.47 1392.73 C 1409.16 1535.01 1277.3 1652.62 1131.06 1732.69 C 1106.37 1746.21 1057.6 1773.82 1031.7 1779.91 C 1014.2 1781.81 1001.19 1776.5 985.566 1769.23 C 746.617 1657.99 559.69 1473.23 465.441 1226.26 C 442.535 1167.73 426.314 1106.79 417.087 1044.62 C 414.594 1026.87 413.038 1009.02 410.689 991.299 C 405.06 948.836 406.029 906.56 406.071 863.887 L 407.239 708.062 C 407.566 655.092 406.503 602.583 408.644 549.31 C 409.76 521.549 404.915 483.415 440.712 472.477 C 451.192 469.274 471.42 470.988 483.047 471.1 C 527.349 471.528 571.024 470.872 614.882 463.765 C 634.099 460.794 651.908 458.835 671.186 454.82 C 769.386 434.37 862.848 395.88 942.058 333.526 C 962.458 317.618 993.772 280.689 1013.83 273.183 z M 489.211 554.368 L 489.356 555.796 C 490.406 566.817 489.638 583.156 489.564 594.885 L 488.993 667.036 C 488.554 758.821 487.133 850.669 488.118 942.503 C 488.49 977.236 492.795 1006.2 498.223 1040.03 C 530.767 1242.83 638.318 1420.61 794.708 1551.98 C 852.685 1601.33 916.458 1643.42 984.618 1677.34 C 995.918 1682.99 1011.49 1691.69 1022.88 1695.65 C 1046.39 1687.42 1085.98 1664.89 1107.45 1652.69 C 1269.02 1561.57 1398.98 1423.35 1479.97 1256.47 C 1519.47 1174.65 1543.17 1082.84 1553.46 992.544 C 1559.21 942.044 1557.82 892.383 1557.97 841.641 L 1557.89 678.995 C 1557.52 638.248 1555.88 595.641 1556.81 554.959 C 1516.01 554.734 1481.85 554.595 1441.09 550.664 C 1326.05 540.066 1214.81 504.046 1115.39 445.208 C 1101.58 436.826 1088.16 427.824 1075.16 418.228 C 1069.07 413.785 1025.99 379.719 1022.57 378.684 C 1004.1 391.7 987.787 407.245 969.017 419.799 C 958.256 426.996 947.535 434.629 936.455 441.325 C 838.022 501.43 727.358 538.688 612.617 550.353 C 579.29 553.882 522.695 557.499 489.211 554.368 z"/>
<path transform="translate(0,0)" fill="rgb(254,254,254)" d="M 1327.56 737.234 C 1341.05 736.094 1354.64 742.791 1364.11 751.924 C 1403.49 789.895 1350.71 829.825 1325.14 855.324 L 1236.21 942.704 L 1051.87 1126.35 C 1022.9 1155.37 993.746 1184.19 964.399 1212.82 C 933.511 1242.38 911.243 1247.32 879.555 1213.73 C 833.537 1164.95 785.361 1117.75 739.754 1068.62 C 721.695 1050 693.038 1028.37 691.116 999.721 C 688.388 959.045 732.41 938.467 763.667 961.625 C 782.25 975.393 803.091 1001.36 820.337 1019.47 L 922.283 1125.13 L 1181.67 866.14 L 1259.63 788.713 C 1280.76 767.77 1297.3 743.434 1327.56 737.234 z"/>
</svg>