<svg version="1.1" xmlns="http://www.w3.org/2000/svg" style="display: block;" viewBox="0 0 2048 2048" width="1254" height="1254" preserveAspectRatio="none">
<path transform="translate(0,0)" fill="rgb(0,62,196)" d="M 1022.18 462.172 C 1031.54 461.64 1037.77 464.797 1044.9 470.756 C 1160.77 567.519 1251.62 694.877 1273.88 845.901 C 1293.23 977.246 1260.04 1110.93 1181.5 1217.96 C 1168.15 1235.87 1132.32 1281.33 1111.44 1283.67 C 1081.2 1287.06 1086 1252.77 1101.1 1235.13 C 1182.74 1139.75 1223.83 1020.51 1216.94 895.118 C 1208.91 748.782 1132.15 629.297 1024.7 534.047 C 1021.08 535.278 1005.53 550.35 1001.78 553.822 C 827.134 715.345 775.044 951.941 896.333 1163.88 C 904.103 1177.25 912.544 1190.22 921.624 1202.74 C 928.055 1211.58 935.279 1220.46 941.843 1229.15 C 950.294 1240.33 962.356 1252.51 959.209 1267.71 C 956.923 1278.74 949.709 1282.57 940.226 1285.25 C 925.282 1281.9 913.987 1271.67 903.457 1260.99 C 860.154 1217.07 825.223 1158.19 802.865 1100.97 C 755.246 978.895 757.684 842.969 809.651 722.683 C 847.66 637.766 902.732 561.576 971.444 498.851 C 985.937 485.699 1004.09 469.233 1022.18 462.172 z"/>
<path transform="translate(0,0)" fill="rgb(0,62,196)" d="M 448.774 723.45 C 459.685 722.345 487.222 724.801 498.826 726.319 C 582.157 737.226 666.959 765.129 738.234 809.805 C 734.048 830.64 732.173 845.854 728.831 866.142 C 716.243 862.394 678.985 841.239 663.831 834.283 C 605.534 807.297 543.088 790.379 479.142 784.247 C 477.748 827.265 480.947 870.308 488.683 912.648 C 496.381 955.338 510.786 1003.72 527.333 1043.98 C 533.388 1058.71 546.466 1079.22 554.777 1093 C 596.13 1161.54 648.735 1216.68 714.441 1262.37 C 762.383 1292.74 807.467 1319.44 861.088 1339.27 C 873.352 1343.81 901.989 1354.63 903.972 1368.94 C 904.489 1372.6 903.476 1376.31 901.172 1379.2 C 898.265 1382.86 893.957 1384.63 889.397 1384.99 C 871.407 1386.43 851.564 1381.79 834.188 1377.46 C 752.511 1357.1 678.338 1312.84 615.41 1257.71 C 496.115 1153.21 428.968 1004.92 418.756 847.466 C 417.332 825.51 414.705 744.209 427.956 730.182 C 433.831 723.963 440.825 723.825 448.774 723.45 z"/>
<path transform="translate(0,0)" fill="rgb(0,62,196)" d="M 1574.94 723.564 C 1582.27 722.955 1589.62 722.7 1596.97 722.799 C 1613.75 723.074 1624.81 728.678 1626.7 746.793 C 1645.22 934.675 1582.46 1117.8 1442.81 1248.41 C 1375.09 1311.75 1263.62 1379.89 1163.97 1385.1 C 1141.33 1386.28 1134.95 1362.83 1158.18 1352.43 C 1213.79 1327.52 1266.91 1305.81 1318.53 1272.24 C 1491.9 1158.39 1572.38 990.394 1568.94 784.92 C 1516.75 787.376 1458.57 804.447 1410.26 823.651 C 1393.6 830.316 1377.25 837.727 1361.26 845.861 C 1354.7 849.227 1325.54 866.046 1319.94 864.975 C 1317.44 860.625 1314.29 824.32 1311.13 816.174 C 1307.59 807.029 1334.31 795.599 1342.07 791.646 C 1410.49 756.773 1498.01 727.415 1574.94 723.564 z"/>
<path transform="translate(0,0)" fill="rgb(0,62,196)" d="M 1660.08 1196.41 C 1686.8 1193.91 1761.35 1198.07 1777.55 1214.45 C 1804.26 1241.47 1716.3 1336.62 1698.39 1353.7 C 1571.58 1472.38 1403.12 1536.3 1229.5 1531.6 C 1189.95 1530.64 1149.73 1527.13 1111.59 1514.98 C 1083.77 1509.13 1079.14 1467.64 1110.23 1467.08 C 1129.06 1466.74 1157.38 1472.06 1176.76 1473.83 C 1373.66 1491.92 1582.3 1415.77 1704.69 1257.18 C 1635.5 1254.93 1573.17 1266.22 1506.56 1284.91 C 1498.94 1286.57 1474.75 1295.68 1468.36 1290.56 C 1454.14 1279.14 1505.6 1239.23 1511.94 1235.47 C 1555.11 1209.83 1610.62 1200.36 1660.08 1196.41 z"/>
<path transform="translate(0,0)" fill="rgb(0,62,196)" d="M 345.056 1196.41 C 405.918 1190.87 500.709 1206.86 549.072 1245.67 C 576.601 1267.66 610.415 1306.27 545.534 1285.85 C 478.204 1264.66 414.021 1255.17 343.711 1257.08 C 357.333 1275.61 372.355 1293.07 388.647 1309.3 C 473.21 1392.48 591.183 1447.14 707.501 1467.1 C 748.248 1474.1 786.202 1476.1 827.376 1475.91 C 848.972 1475.35 870.541 1474.02 892.04 1471.91 C 906.548 1470.39 938.085 1463 949.596 1470.49 C 954.606 1473.75 958.097 1478.88 959.285 1484.74 C 964.913 1513.49 916.353 1521.82 896.553 1524.81 C 731.631 1549.72 556.97 1507.37 420.709 1411.48 C 366.09 1373.04 315.208 1326.4 281.224 1268.34 C 275.045 1257.77 258.039 1226.62 268.981 1216.09 C 284.979 1200.68 323.767 1198.2 345.056 1196.41 z"/>
<path transform="translate(0,0)" fill="rgb(0,62,196)" d="M 1023.33 824.786 C 1030.98 826.638 1040.25 836.636 1045.01 842.978 C 1094.11 908.446 1115.15 998.839 1106.57 1079.81 C 1104.29 1101.36 1093.18 1153.16 1076.09 1171.51 C 1074.53 1173.18 1068.95 1174.53 1066.39 1173.54 C 1059.06 1170.73 1058.56 1157.34 1058.77 1151.05 C 1060.74 1091.07 1059.32 1033.04 1042.53 974.886 C 1038.08 959.475 1032.61 941.873 1024.51 927.809 L 1023.79 926.57 C 991.632 995.755 986.248 1076.27 989.342 1151.44 C 990.237 1173.19 976.44 1183.96 966.003 1162.89 C 926.254 1082.62 934.324 982.53 968.657 901.81 C 978.627 878.37 1001.28 837.247 1023.33 824.786 z"/>
<path transform="translate(0,0)" fill="rgb(0,62,196)" d="M 622.544 933.086 C 641.31 931.888 670.097 938.803 679.554 956.981 C 687.206 971.688 692.612 989.884 699.097 1005.53 C 710.604 1033.09 724.413 1059.64 740.379 1084.88 C 751.224 1102.3 763.001 1118.53 774.832 1135.23 C 781.164 1144.16 790.22 1160.93 773.934 1164.75 C 733.271 1154.87 687.05 1103.24 664.642 1069.77 C 649.295 1046.85 608.095 967.991 614.027 943.022 C 615.231 937.952 618.289 935.682 622.544 933.086 z"/>
<path transform="translate(0,0)" fill="rgb(0,62,196)" d="M 1409.54 933.165 C 1440.24 929.588 1436.88 947.628 1430.1 970.083 C 1407.6 1044.6 1358.34 1122.4 1288.49 1160.1 C 1266.72 1170.23 1258.94 1159.36 1270.46 1139.83 C 1274.81 1132.44 1280.24 1125.59 1285.35 1118.7 C 1310.42 1084.85 1331.37 1048.15 1347.77 1009.36 C 1364.64 968.942 1360.46 944.663 1409.54 933.165 z"/>
</svg>