<svg version="1.1" xmlns="http://www.w3.org/2000/svg" style="display: block;" viewBox="0 0 2048 2048" width="1254" height="1254" preserveAspectRatio="none">
<path transform="translate(0,0)" fill="rgb(254,254,254)" d="M 1010.75 198.423 C 1019.49 196.75 1035.4 199.702 1044.74 198.965 C 1069.78 196.991 1090.4 199.087 1115.27 202.083 C 1152.35 206.293 1189.15 212.687 1225.48 221.231 C 1418.68 269.631 1584.58 393.128 1686.37 564.322 C 1701.3 589.053 1714.06 616.41 1725.64 642.816 C 1793.73 796.072 1808.76 967.654 1768.37 1130.42 C 1727.54 1291.74 1635.31 1435.39 1505.63 1539.68 C 1442.22 1589.99 1368.95 1631.72 1292.45 1658.6 C 1286.17 1660.8 1279.8 1662.89 1273.48 1664.95 C 1141.41 1709.05 999.507 1714.65 864.369 1681.1 C 853.5 1677.59 837.945 1674.31 826.402 1670.8 C 802.878 1663.66 778.595 1654.48 755.909 1646.17 C 744.524 1642 697.272 1616.53 689.32 1617.44 C 668.371 1619.81 626.799 1636.14 606.228 1642.57 C 585.258 1649.12 564.278 1654.64 543.917 1660.83 L 409.331 1702.57 L 339.409 1724.28 C 330.111 1727.14 296.297 1739.71 289.072 1733.96 C 286.571 1728.9 286.707 1724.7 288.2 1719.2 C 292.134 1704.7 300.669 1690.19 305.029 1675.88 C 311.497 1654.65 317.535 1633.24 323.944 1612 L 364.837 1475.89 C 377.253 1433.74 393.735 1391.41 397.868 1347.35 C 397.139 1333.31 387.231 1318.69 380.718 1306.52 C 287.209 1131.86 266.096 926.032 320.559 735.766 C 325.705 717.786 332.956 701.048 339.308 683.445 C 418.76 463.256 607.651 291.365 832.547 228.023 C 890.713 211.64 950.412 203.657 1010.75 198.423 z M 475.187 1550.05 C 507.799 1540.12 541.158 1528.89 573.751 1518.59 C 588.799 1513.84 604.522 1510.34 619.553 1505.54 L 665.759 1490.49 C 676.615 1486.91 698.657 1477.57 709.339 1481.21 L 711.15 1481.81 C 725.285 1486.62 750.505 1503.25 765.945 1510.79 C 815.041 1535.14 867.148 1552.89 920.904 1563.56 C 928.151 1564.94 941.743 1567.68 948.918 1568.35 C 983.056 1573.97 1012.51 1576.74 1047.08 1574.59 C 1060 1573.78 1074.03 1576.09 1087.07 1574.43 C 1198.74 1565.28 1314.05 1524.06 1404.04 1456.91 C 1421.7 1443.74 1459.86 1413.01 1474.85 1398.07 C 1561.49 1311.7 1631.2 1189.36 1650.82 1067.65 C 1653.89 1048.61 1660.18 1012.41 1661.46 994.736 C 1672.38 850.689 1632.68 707.346 1549.2 589.448 C 1474.04 483.497 1367.42 403.905 1244.48 361.967 C 1236.05 359.173 1227.17 356.509 1218.5 354.59 C 1191.33 348.574 1165.62 340.38 1138.03 336.116 C 1099.24 330.121 1060.56 328.18 1021.35 329.115 C 1017.28 329.212 1012.49 328.988 1008.55 329.444 C 843.996 337.339 689.258 410.05 578.151 531.687 C 465.496 656.387 407.886 821.247 418.354 988.972 C 425.875 1116.49 470.865 1217.81 538.592 1321.02 C 539.744 1322.77 541.599 1327.29 541.152 1329.29 C 525.019 1401.7 492.725 1478.72 475.187 1550.05 z"/>
<path transform="translate(0,0)" fill="rgb(254,254,254)" d="M 777.825 602.411 C 799.964 600.635 836.112 600.598 848.17 622.158 C 863.693 649.912 873.608 680.364 885.992 709.863 C 895.924 733.52 908.078 758.628 915.464 783.285 C 924.729 823.929 866.425 861.869 857.369 893.337 C 853.72 906.015 890.289 957.33 899.911 970.3 C 947.932 1035.04 1010 1090.32 1081.9 1127.36 C 1102.17 1137.8 1123.22 1149.95 1146.69 1153.02 C 1170.02 1140.96 1174.95 1127.45 1191.47 1109.42 C 1210.4 1088.76 1221.73 1056.41 1251.86 1054.37 C 1258.86 1053.93 1265.87 1054.8 1272.55 1056.95 C 1293.81 1063.78 1411.38 1119.41 1424.2 1131.19 C 1431.59 1137.99 1434.39 1150.17 1434.61 1159.83 C 1435.31 1190 1422.35 1240.7 1401.2 1263 C 1400.7 1263.65 1400.19 1264.29 1399.65 1264.91 C 1361.01 1310.61 1279.01 1341.91 1220.05 1330.81 C 1146.53 1316.97 1063.07 1285.43 998.661 1247.11 C 963.958 1226.16 931.171 1202.19 900.681 1175.48 C 842.284 1123.6 789.723 1065.5 743.931 1002.22 C 727.786 980.307 713.253 960.429 700.072 936.939 C 645.975 840.534 629.989 725.453 711.415 637.808 C 731.253 616.454 748.275 604.178 777.825 602.411 z"/>
</svg>