<svg version="1.1" xmlns="http://www.w3.org/2000/svg" style="display: block;" viewBox="0 0 2048 2048" width="1254" height="1254" preserveAspectRatio="none">
<path transform="translate(0,0)" fill="rgb(254,254,254)" d="M 383.866 426.504 C 434.666 425.083 486.262 426.343 537.167 426.459 C 596.633 426.594 656.234 412.935 676.674 485.955 C 682.314 506.107 688.971 527.55 694.622 547.84 C 701.876 575.868 713.517 604.953 719.436 633.129 C 786.868 634.36 857.791 633 925.5 633.195 L 1385.14 633.379 L 1573.82 633.223 L 1633.35 633.1 C 1655.2 633.021 1686.87 629.995 1703.36 645.029 C 1729.9 669.238 1718.32 700.053 1709.18 728.634 C 1702.29 750.177 1696.18 770.845 1689.93 791.772 L 1625.24 1007.21 C 1619.01 1027.53 1612.96 1047.9 1607.11 1068.32 C 1601.26 1088.95 1595.36 1109.27 1588.24 1129.55 C 1576.78 1162.74 1544.05 1192.44 1508.9 1197.75 C 1485.33 1201.31 1456.85 1200.01 1432.51 1199.98 L 1314.62 1199.92 C 1169.73 1199.29 1024.84 1199.61 879.96 1200.88 C 882.614 1207.21 883.605 1211.62 885.269 1218.27 C 891.679 1241.9 893.071 1254.74 918.229 1264.2 C 930.154 1268.68 1013.48 1266.12 1030.45 1266.1 L 1360.29 1266.18 L 1457.93 1266.14 C 1476.42 1266.1 1494.59 1265.78 1513.07 1266.68 C 1547 1268.4 1566.52 1309.72 1542.85 1335.94 C 1523.6 1357.27 1489.16 1351.78 1462.19 1351.73 L 1382.2 1351.7 L 1121.32 1351.59 L 982.72 1351.72 C 968.973 1351.72 929.065 1352.58 916.743 1350.91 C 901.438 1348.81 886.606 1344.1 872.892 1336.99 C 850.649 1325.23 832.816 1306.58 822.065 1283.83 C 813.361 1265.73 808.353 1241.92 802.771 1222 L 773.986 1119.42 L 662.357 724.903 L 625.84 599.094 C 619.104 575.987 612.628 552.692 605.053 529.858 C 602.482 522.106 597.563 514.725 588.827 513.743 C 564.077 510.961 538.518 511.766 513.6 512.007 L 424.801 512.155 C 412.318 512.205 388.259 513.004 376.969 510.794 C 368.97 509.289 361.535 505.625 355.469 500.198 C 327.95 475.323 342.597 428.79 383.866 426.504 z M 858.35 1119.02 C 903.097 1120.11 951.049 1119.26 996.042 1119.25 L 1251.82 1119.29 L 1407.45 1119.31 C 1534.26 1119.24 1497.98 1131.32 1536.76 1028.39 L 1601.88 810.208 L 1618.09 757.261 C 1621.85 745.017 1626.68 731.22 1628.33 718.701 C 1612.82 717.76 1594.34 718.169 1578.62 718.172 L 1498.64 718.197 L 1245.79 718.242 L 916.411 718.205 L 810.104 718.244 C 789.061 718.228 766.368 717.731 745.544 718.489 L 744.397 719.547 C 745.404 725.95 752.392 748.129 754.545 755.752 C 762.054 783.163 769.804 810.507 777.793 837.781 L 834.544 1036.17 C 842.212 1063.29 851.457 1092.05 858.35 1119.02 z"/>
<path transform="translate(0,0)" fill="rgb(254,254,254)" d="M 1400.41 1391.99 C 1464.17 1387.02 1520.07 1434.23 1525.84 1497.92 C 1531.61 1561.61 1485.1 1618.1 1421.49 1624.67 C 1379.63 1628.99 1338.68 1610.46 1314.29 1576.16 C 1289.9 1541.86 1285.85 1497.1 1303.67 1458.97 C 1321.5 1420.85 1358.45 1395.26 1400.41 1391.99 z M 1414.51 1564.36 C 1434.85 1562.66 1452.7 1550.16 1461.26 1531.63 C 1469.81 1513.1 1467.76 1491.41 1455.87 1474.82 C 1443.98 1458.23 1424.1 1449.31 1403.8 1451.46 C 1372.9 1454.73 1350.38 1482.27 1353.32 1513.21 C 1356.25 1544.15 1383.54 1566.96 1414.51 1564.36 z"/>
<path transform="translate(0,0)" fill="rgb(254,254,254)" d="M 933.256 1392.17 C 997.351 1387.99 1052.77 1436.4 1057.24 1500.47 C 1061.71 1564.55 1013.55 1620.19 949.497 1624.94 C 885.037 1629.73 828.971 1581.2 824.472 1516.72 C 819.973 1452.24 868.755 1396.39 933.256 1392.17 z M 947.537 1564.19 C 978.448 1560.54 1000.63 1532.64 997.235 1501.7 C 993.839 1470.76 966.134 1448.34 935.164 1451.47 C 903.822 1454.65 881.074 1482.76 884.511 1514.07 C 887.948 1545.39 916.252 1567.9 947.537 1564.19 z"/>
</svg>